<svg
   width="24"
   height="24"
   viewBox="0 0 24 24"
   version="1.1"
   id="svg1">
  <path
     d="m 15.540405,22.894264 -0.889644,-2.770307 -0.920399,0.29321 0.889643,2.770306 -1.840799,0.586419 -0.889643,-2.770305 -4.5734661,1.456958 -0.4164906,-2.876574 0.9931113,-0.316375 C 8.7063507,19.008399 8.9215479,18.079913 8.6695508,17.295207 L 6.0527277,9.1465477 C 5.8075017,8.3829259 5.1930119,8.0016897 4.3830603,8.2597141 L 2.878207,8.7391123 1.9950402,5.9889738 6.5970381,4.5229254 5.7138712,1.7727873 7.5546704,1.1863679 8.4378371,3.9365061 9.3582367,3.6432965 8.47507,0.89315841 10.315869,0.30673894 11.214638,3.1054629 c 4.014506,-1.1313599 6.068794,-0.1336298 7.062644,1.4131156 1.175599,1.828372 0.391718,3.9272986 -0.614601,4.6985591 1.493977,-0.089923 3.733044,0.3174209 4.486386,2.6632894 1.025357,3.192911 -0.761869,6.119748 -5.651031,7.677279 l 0.883167,2.750138 z m -4.160444,-9.79613 1.47371,4.589062 c 3.653066,-1.16375 6.045238,-2.304753 5.414952,-4.267435 -0.67592,-2.104771 -3.437164,-1.421165 -6.888662,-0.321627 z M 10.79295,11.270207 C 12.827952,10.621922 15.881013,9.4916775 15.190965,7.3429023 14.602188,5.5094769 12.542403,5.6604102 9.3210039,6.6866441 Z"
     id="path1"
     style="stroke-width:0.964396" />
</svg>
