<?xml version="1.0" encoding="UTF-8" standalone="no"?>
<svg
   data-name="Layer 1"
   viewBox="0 0 1104.6046 379.52645"
   version="1.1"
   id="svg35391"
   sodipodi:docname="ipfs-flipstarter-logo-dark.svg"
   width="11.506298in"
   height="3.9534006in"
   inkscape:version="1.1.2 (0a00cf5339, 2022-02-04, custom)"
   xmlns:inkscape="http://www.inkscape.org/namespaces/inkscape"
   xmlns:sodipodi="http://sodipodi.sourceforge.net/DTD/sodipodi-0.dtd"
   xmlns="http://www.w3.org/2000/svg"
   xmlns:svg="http://www.w3.org/2000/svg">
  <defs
     id="defs35395">
    <rect
       x="242.81825"
       y="197.68031"
       width="1142.6154"
       height="382.83881"
       id="rect38638" />
  </defs>
  <sodipodi:namedview
     id="namedview35393"
     pagecolor="#0062ff"
     bordercolor="#666666"
     borderopacity="1.0"
     inkscape:pageshadow="2"
     inkscape:pageopacity="0"
     inkscape:pagecheckerboard="0"
     showgrid="false"
     units="in"
     inkscape:zoom="0.32"
     inkscape:cx="228.125"
     inkscape:cy="-95.3125"
     inkscape:window-width="1295"
     inkscape:window-height="1044"
     inkscape:window-x="1947"
     inkscape:window-y="23"
     inkscape:window-maximized="1"
     inkscape:current-layer="text38636"
     fit-margin-top="0"
     fit-margin-left="0"
     fit-margin-right="0"
     fit-margin-bottom="0"
     inkscape:document-units="in" />
  <path
     d="M 0.76819699,145.5 84.768193,194 168.76819,145.5 v -97 L 84.768193,0 0.76819699,48.5 Z"
     fill="#469ea2"
     id="path35379" />
  <path
     d="M 76.168193,11.6 15.168197,46.8 a 18.19,18.19 0 0 1 0,3.3 l 60.899996,35.2 a 14.55,14.55 0 0 1 17.3,0 L 154.26819,50.1 a 18.19,18.19 0 0 1 0,-3.3 L 93.468193,11.6 a 14.55,14.55 0 0 1 -17.3,0 z M 160.16819,59.8 99.168193,95.4 a 14.73,14.73 0 0 1 -8.6,15 l 0.1,70 a 15.57,15.57 0 0 1 2.8,1.6 l 60.899997,-35.2 a 14.73,14.73 0 0 1 8.6,-15 V 61.4 a 20,20 0 0 1 -2.8,-1.6 z M 9.368197,60.2 a 15.57,15.57 0 0 1 -2.8,1.6 v 70.4 a 14.38,14.38 0 0 1 8.6,15 l 60.899996,35.2 a 15.57,15.57 0 0 1 2.8,-1.6 v -70.4 a 14.38,14.38 0 0 1 -8.6,-15 z"
     fill="#6acad1"
     id="path35381" />
  <path
     d="m 84.768193,10.5 75.099997,43.4 v 86.7 L 84.768193,184 9.668197,140.6 V 53.8 L 84.768193,10.5 m 0,-10.3 -83.99999601,48.5 v 97 L 84.768193,194.2 168.76819,145.7 v -97 z"
     fill="#469ea2"
     id="path35383" />
  <path
     d="m 85.368193,113.5 h -1.2 a 15.66,15.66 0 0 1 -15.7,-15.7 v -1.2 a 15.66,15.66 0 0 1 15.7,-15.7 h 1.2 a 15.66,15.66 0 0 1 15.699997,15.7 v 1.2 a 15.66,15.66 0 0 1 -15.699997,15.7 z m 0,64.5 h -1.2 a 15.65,15.65 0 0 0 -13.7,8 l 14.3,8.2 14.3,-8.2 a 15.65,15.65 0 0 0 -13.7,-8 z m 83.499997,-48.5 h -0.6 a 15.66,15.66 0 0 0 -15.7,15.7 v 1.2 a 15.13,15.13 0 0 0 2,7.6 l 14.3,-8.3 z m -14.3,-89 a 15.4,15.4 0 0 0 -2,7.6 v 1.2 a 15.66,15.66 0 0 0 15.7,15.7 h 0.6 V 48.7 Z M 84.768193,0.2 l -14.3,8.2 a 15.73,15.73 0 0 0 13.7,8.1 h 1.2 a 15.65,15.65 0 0 0 13.7,-8 z M 15.068197,40.4 0.76819699,48.7 V 65 H 1.368197 a 15.66,15.66 0 0 0 15.7,-15.7 v -1.2 a 16.63,16.63 0 0 0 -2,-7.7 z m -13.7,89.1 H 0.76819699 v 16.2 L 15.068197,154 a 15.4,15.4 0 0 0 2,-7.6 v -1.2 a 15.66,15.66 0 0 0 -15.7,-15.7 z"
     fill="#469ea2"
     id="path35385" />
  <path
     d="M 84.768193,194.7 V 97.6 L 0.76819699,49.1 v 97.1 z"
     fill-opacity="0.15"
     fill="#083b54"
     id="path35387" />
  <path
     d="m 168.86819,145.3 v -97 L 84.868193,96.8 v 97.1 z"
     fill-opacity="0.05"
     fill="#083b54"
     id="path35389" />
  <g
     aria-label="     Interplanetary Flipstarterters"
     transform="matrix(1.0210199,0,0,1.0442329,-247.92238,-193.6057)"
     id="text38636"
     style="font-weight:bold;font-size:133.333px;line-height:1.25;-inkscape-font-specification:'sans-serif Bold';letter-spacing:0px;white-space:pre;shape-inside:url(#rect38638)">
    <path
       d="m 458.81773,223.81295 h -19.99995 v 97.19976 h 19.99995 z"
       style="fill:#000000"
       id="path177124" />
    <path
       d="m 478.15093,249.01289 v 71.99982 h 18.66662 v -43.19989 c 0,-8.53332 5.99998,-14.1333 15.06663,-14.1333 7.99997,0 11.99996,4.39999 11.99996,12.9333 v 44.39989 h 18.66662 v -48.26655 c 0,-15.86662 -8.79997,-24.93327 -24.13327,-24.93327 -9.73331,0 -16.26662,3.59999 -21.59994,11.59997 v -10.39997 z"
       style="fill:#000000"
       id="path177126" />
    <path
       d="M 592.28409,250.47955 H 581.88412 V 231.14627 H 563.2175 v 19.33328 h -9.19998 v 12.39997 h 9.19998 v 44.26655 c 0,11.33331 5.99998,16.93329 18.26662,16.93329 4.13332,0 7.46665,-0.39999 10.79997,-1.46666 v -13.06663 c -1.86666,0.26666 -2.93332,0.4 -4.26665,0.4 -4.93333,0 -6.13332,-1.46667 -6.13332,-7.86665 v -39.1999 h 10.39997 z"
       style="fill:#000000"
       id="path177128" />
    <path
       d="m 634.95056,247.81289 c -20.66661,0 -33.33324,14.9333 -33.33324,39.06657 0,23.06661 12.5333,37.1999 32.93325,37.1999 16.13329,0 29.19992,-9.19997 33.33324,-23.33327 h -18.39995 c -2.26666,5.73332 -7.46665,9.06664 -14.26663,9.06664 -12.5333,0 -14.5333,-9.19997 -14.93329,-18.93328 h 48.26654 c 0.13333,-1.6 0.13333,-2.26666 0.13333,-3.19999 0,-31.86659 -19.33328,-39.86657 -33.73325,-39.86657 z m 14.26663,30.66659 H 620.5506 c 1.2,-10.9333 5.86665,-16.39996 14.1333,-16.39996 8.66664,0 13.7333,5.86665 14.53329,16.39996 z"
       style="fill:#000000"
       id="path177130" />
    <path
       d="m 682.6838,249.01289 v 71.99982 h 18.66661 v -38.26657 c 0,-10.93331 5.46666,-16.39996 16.39996,-16.39996 2,0 3.33333,0.13333 5.86665,0.53333 v -18.93328 c -1.06666,-0.13334 -1.73332,-0.13334 -2.26666,-0.13334 -8.53331,0 -15.99996,5.59999 -19.99995,15.3333 v -14.1333 z"
       style="fill:#000000"
       id="path177132" />
    <path
       d="m 773.61693,247.81289 c -9.06664,0 -15.46662,3.86666 -19.99994,11.86664 V 249.01289 H 734.95037 V 350.0793 h 18.66662 v -37.59991 c 4.53332,7.99998 10.9333,11.73331 19.99994,11.73331 17.33329,0 30.13326,-16.26663 30.13326,-38.13324 0,-21.19994 -11.46664,-38.26657 -30.13326,-38.26657 z m -4.26665,15.59996 c 9.46664,0 15.73329,9.19998 15.73329,22.93328 0,13.06663 -6.53331,22.26661 -15.73329,22.26661 -9.33331,0 -15.73329,-9.06665 -15.73329,-22.53328 0,-13.46663 6.39998,-22.66661 15.73329,-22.66661 z"
       style="fill:#000000"
       id="path177134" />
    <path
       d="M 836.41682,223.81295 H 817.7502 v 97.19976 h 18.66662 z"
       style="fill:#000000"
       id="path177136" />
    <path
       d="m 872.28343,324.07936 c 7.99998,0 15.33329,-3.46665 21.86661,-10.26664 0,3.73333 0.4,5.06666 2.13333,7.19999 h 20.26661 v -2.26667 c -3.33332,-3.06665 -4.26666,-5.06665 -4.26666,-8.79997 v -39.9999 c 0,-14.66663 -9.99997,-22.13328 -29.46659,-22.13328 -19.46661,0 -29.59992,8.26665 -30.79992,24.93327 h 17.99996 c 0.93333,-7.46665 3.99999,-9.86664 13.19996,-9.86664 7.19998,0 10.79997,2.39999 10.79997,7.19998 0,7.06665 -8.79997,7.46665 -14.93329,8.39998 l -7.46665,1.33333 c -14.26663,2.39999 -21.19994,9.73331 -21.19994,22.66661 0,12.9333 8.79997,21.59994 21.86661,21.59994 z m 21.73327,-31.99991 c 0,10.79997 -5.33332,16.93329 -14.79996,16.93329 -6.26665,0 -10.13331,-3.33333 -10.13331,-8.66665 0,-5.59998 2.93333,-8.26664 10.66664,-9.86664 l 6.39999,-1.2 c 4.93332,-0.93333 5.73332,-1.19999 7.86664,-2.26666 z"
       style="fill:#000000"
       id="path177138" />
    <path
       d="m 929.21663,249.01289 v 71.99982 h 18.66662 v -43.19989 c 0,-8.53332 5.99999,-14.1333 15.06663,-14.1333 7.99998,0 11.99997,4.39999 11.99997,12.9333 v 44.39989 h 18.66662 v -48.26655 c 0,-15.86662 -8.79998,-24.93327 -24.13327,-24.93327 -9.73331,0 -16.26663,3.59999 -21.59995,11.59997 v -10.39997 z"
       style="fill:#000000"
       id="path177140" />
    <path
       d="m 1040.9498,247.81289 c -20.6666,0 -33.3333,14.9333 -33.3333,39.06657 0,23.06661 12.5333,37.1999 32.9333,37.1999 16.1333,0 29.1999,-9.19997 33.3332,-23.33327 h -18.3999 c -2.2667,5.73332 -7.4667,9.06664 -14.2667,9.06664 -12.5333,0 -14.5333,-9.19997 -14.9333,-18.93328 h 48.2666 c 0.1333,-1.6 0.1333,-2.26666 0.1333,-3.19999 0,-31.86659 -19.3333,-39.86657 -33.7332,-39.86657 z m 14.2666,30.66659 h -28.6666 c 1.2,-10.9333 5.8667,-16.39996 14.1333,-16.39996 8.6666,0 13.7333,5.86665 14.5333,16.39996 z"
       style="fill:#000000"
       id="path177142" />
    <path
       d="m 1121.0829,250.47955 h -10.4 v -19.33328 h -18.6666 v 19.33328 h -9.1999 v 12.39997 h 9.1999 v 44.26655 c 0,11.33331 6,16.93329 18.2666,16.93329 4.1334,0 7.4667,-0.39999 10.8,-1.46666 v -13.06663 c -1.8666,0.26666 -2.9333,0.4 -4.2666,0.4 -4.9334,0 -6.1334,-1.46667 -6.1334,-7.86665 v -39.1999 h 10.4 z"
       style="fill:#000000"
       id="path177144" />
    <path
       d="m 1152.2828,324.07936 c 7.9999,0 15.3332,-3.46665 21.8666,-10.26664 0,3.73333 0.4,5.06666 2.1333,7.19999 h 20.2666 v -2.26667 c -3.3333,-3.06665 -4.2666,-5.06665 -4.2666,-8.79997 v -39.9999 c 0,-14.66663 -10,-22.13328 -29.4666,-22.13328 -19.4667,0 -29.6,8.26665 -30.8,24.93327 h 18 c 0.9333,-7.46665 4,-9.86664 13.2,-9.86664 7.1999,0 10.7999,2.39999 10.7999,7.19998 0,7.06665 -8.7999,7.46665 -14.9333,8.39998 l -7.4666,1.33333 c -14.2666,2.39999 -21.2,9.73331 -21.2,22.66661 0,12.9333 8.8,21.59994 21.8667,21.59994 z m 21.7332,-31.99991 c 0,10.79997 -5.3333,16.93329 -14.7999,16.93329 -6.2667,0 -10.1333,-3.33333 -10.1333,-8.66665 0,-5.59998 2.9333,-8.26664 10.6666,-9.86664 l 6.4,-1.2 c 4.9333,-0.93333 5.7333,-1.19999 7.8666,-2.26666 z"
       style="fill:#000000"
       id="path177146" />
    <path
       d="m 1209.216,249.01289 v 71.99982 h 18.6666 v -38.26657 c 0,-10.93331 5.4666,-16.39996 16.3999,-16.39996 2,0 3.3334,0.13333 5.8667,0.53333 v -18.93328 c -1.0667,-0.13334 -1.7333,-0.13334 -2.2667,-0.13334 -8.5333,0 -15.9999,5.59999 -19.9999,15.3333 v -14.1333 z"
       style="fill:#000000"
       id="path177148" />
    <path
       d="m 1280.9491,324.47936 c 0,6.79999 -5.0666,11.99997 -11.6,11.99997 -1.4666,0 -2.5333,-0.13333 -4.9333,-0.8 v 13.99997 c 2.8,0.4 4.4,0.53333 6.6667,0.53333 20.3999,0 22.2666,-11.06664 23.9999,-15.99996 l 29.5999,-85.19978 h -19.1999 l -14.9333,52.39987 -15.8666,-52.39987 h -20.5333 l 26.7999,74.93314 z"
       style="fill:#000000"
       id="path177150" />
    <path
       d="m 391.01449,445.81241 h 42.53322 v -16.66663 h -42.53322 v -21.99994 h 48.26654 v -16.66663 h -68.26649 v 97.19976 h 19.99995 z"
       style="fill:#000000"
       id="path177152"
       sodipodi:nodetypes="ccccccccccc" />
    <path
       d="m 471.94761,390.47921 h -18.66662 v 97.19976 h 18.66662 z"
       style="fill:#000000"
       id="path177154"
       sodipodi:nodetypes="ccccc" />
    <path
       d="m 508.61425,415.67915 h -18.66662 v 71.99982 h 18.66662 z m 0,-25.19994 h -18.66662 v 16.66663 h 18.66662 z"
       style="fill:#000000"
       id="path177156"
       sodipodi:nodetypes="cccccccccc" />
    <path
       d="m 565.28086,414.47915 c -9.06665,0 -15.46663,3.86666 -19.99995,11.86664 v -10.66664 h -18.66662 v 101.06641 h 18.66662 v -37.59991 c 4.53332,7.99998 10.9333,11.73331 19.99995,11.73331 17.33329,0 30.13325,-16.26663 30.13325,-38.13324 0,-21.19994 -11.46663,-38.26657 -30.13325,-38.26657 z m -4.26666,15.59996 c 9.46665,0 15.7333,9.19998 15.7333,22.93328 0,13.06663 -6.53332,22.26661 -15.7333,22.26661 -9.33331,0 -15.73329,-9.06665 -15.73329,-22.53328 0,-13.46663 6.39998,-22.66661 15.73329,-22.66661 z"
       style="fill:#000000"
       id="path177158"
       sodipodi:nodetypes="sccccccssssssss" />
    <path
       d="m 623.01408,466.74569 h -18.26662 c 0.53333,15.73329 12.1333,23.99993 33.99991,23.99993 25.19993,0 31.46659,-14.39996 31.46659,-24.39993 0,-9.33331 -4.66666,-15.3333 -14.1333,-18.13329 l -23.59994,-6.79998 c -5.19999,-1.6 -6.53332,-2.66666 -6.53332,-5.59999 0,-3.99999 4.26666,-6.66665 10.79997,-6.66665 8.93331,0 13.3333,3.19999 13.46664,9.73331 h 17.99995 c -0.26667,-15.19996 -11.99997,-24.39994 -31.33325,-24.39994 -18.26662,0 -29.59993,9.19998 -29.59993,23.99994 0,14.1333 11.59997,16.39996 15.7333,17.73329 l 22.26661,6.93331 c 4.66665,1.46667 6.26665,2.93333 6.26665,5.86666 0,4.39999 -5.19999,7.06665 -13.86664,7.06665 -11.7333,0 -13.59996,-4.39999 -14.66662,-9.33331 z"
       style="fill:#000000"
       id="path177160"
       sodipodi:nodetypes="ccssccssccssccssc" />
    <path
       d="m 715.94715,417.14581 h -10.39998 v -19.33328 h -18.66662 v 19.33328 h -9.19997 v 12.39997 h 9.19997 v 44.26655 c 0,11.33331 5.99999,16.93329 18.26662,16.93329 4.13333,0 7.46665,-0.39999 10.79998,-1.46666 v -13.06663 c -1.86667,0.26666 -2.93333,0.4 -4.26666,0.4 -4.93332,0 -6.13332,-1.46667 -6.13332,-7.86665 v -39.1999 h 10.39998 z"
       style="fill:#000000"
       id="path177162"
       sodipodi:nodetypes="ccccccccssccssccc" />
    <path
       d="m 747.14698,490.74562 c 7.99998,0 15.3333,-3.46665 21.86661,-10.26664 0,3.73333 0.4,5.06666 2.13333,7.19999 h 20.26661 v -2.26667 c -3.33332,-3.06665 -4.26665,-5.06665 -4.26665,-8.79997 v -39.9999 c 0,-14.66663 -9.99998,-22.13328 -29.46659,-22.13328 -19.46662,0 -29.59993,8.26665 -30.79992,24.93327 h 17.99995 c 0.93333,-7.46665 3.99999,-9.86664 13.19997,-9.86664 7.19998,0 10.79997,2.39999 10.79997,7.19998 0,7.06665 -8.79998,7.46665 -14.9333,8.39998 l -7.46664,1.33333 c -14.26663,2.39999 -21.19995,9.73331 -21.19995,22.66661 0,12.9333 8.79998,21.59994 21.86661,21.59994 z m 21.73328,-31.99991 c 0,10.79997 -5.33332,16.93329 -14.79996,16.93329 -6.26665,0 -10.13331,-3.33333 -10.13331,-8.66665 0,-5.59998 2.93333,-8.26664 10.66664,-9.86664 l 6.39998,-1.2 c 4.93332,-0.93333 5.73332,-1.19999 7.86665,-2.26666 z"
       style="fill:#000000"
       id="path177164"
       sodipodi:nodetypes="sccccsssccssccssssscccs" />
    <path
       d="m 804.08016,415.67915 v 71.99982 h 18.66662 V 449.4124 c 0,-10.93331 5.46665,-16.39996 16.39995,-16.39996 2,0 3.33333,0.13333 5.86666,0.53333 v -18.93328 c -1.06667,-0.13334 -1.73333,-0.13334 -2.26667,-0.13334 -8.53331,0 -15.99995,5.59999 -19.99994,15.3333 v -14.1333 z"
       style="fill:#000000"
       id="path177166"
       sodipodi:nodetypes="cccssccsccc" />
    <path
       d="m 888.74664,417.14581 h -10.39997 v -19.33328 h -18.66662 v 19.33328 h -9.19997 v 12.39997 h 9.19997 v 44.26655 c 0,11.33331 5.99999,16.93329 18.26662,16.93329 4.13333,0 7.46665,-0.39999 10.79997,-1.46666 v -13.06663 c -1.86666,0.26666 -2.93332,0.4 -4.26665,0.4 -4.93332,0 -6.13332,-1.46667 -6.13332,-7.86665 v -39.1999 h 10.39997 z"
       style="fill:#000000"
       id="path177168"
       sodipodi:nodetypes="ccccccccssccssccc" />
    <path
       d="m 931.41309,414.47915 c -20.66662,0 -33.33325,14.9333 -33.33325,39.06657 0,23.06661 12.5333,37.1999 32.93325,37.1999 16.13329,0 29.19992,-9.19997 33.33325,-23.33327 h -18.39996 c -2.26666,5.73332 -7.46664,9.06664 -14.26663,9.06664 -12.5333,0 -14.53329,-9.19997 -14.93329,-18.93328 H 965.013 c 0.13333,-1.6 0.13333,-2.26666 0.13333,-3.19999 0,-31.86659 -19.33328,-39.86657 -33.73324,-39.86657 z m 14.26663,30.66659 h -28.6666 c 1.2,-10.9333 5.86666,-16.39996 14.1333,-16.39996 8.66665,0 13.7333,5.86665 14.5333,16.39996 z"
       style="fill:#000000"
       id="path177170"
       sodipodi:nodetypes="sssccsccssccsc" />
    <path
       d="m 979.14632,415.67915 v 71.99982 h 18.66662 V 449.4124 c 0,-10.93331 5.46666,-16.39996 16.39996,-16.39996 2,0 3.3333,0.13333 5.8666,0.53333 v -18.93328 c -1.0666,-0.13334 -1.7333,-0.13334 -2.2666,-0.13334 -8.5333,0 -16,5.59999 -19.99996,15.3333 v -14.1333 z"
       style="fill:#000000"
       id="path177172"
       sodipodi:nodetypes="cccssccsccc" />
    <path
       d="m 1049.6612,466.74569 h -18.2666 c 0.5333,15.73329 12.1333,23.99993 33.9999,23.99993 25.1999,0 31.4666,-14.39996 31.4666,-24.39993 0,-9.33331 -4.6667,-15.3333 -14.1333,-18.13329 l -23.5999,-6.79998 c -5.2,-1.6 -6.5334,-2.66666 -6.5334,-5.59999 0,-3.99999 4.2667,-6.66665 10.8,-6.66665 8.9333,0 13.3333,3.19999 13.4666,9.73331 h 18 c -0.2667,-15.19996 -12,-24.39994 -31.3333,-24.39994 -18.2666,0 -29.5999,9.19998 -29.5999,23.99994 0,14.1333 11.6,16.39996 15.7333,17.73329 l 22.2666,6.93331 c 4.6667,1.46667 6.2667,2.93333 6.2667,5.86666 0,4.39999 -5.2,7.06665 -13.8667,7.06665 -11.7333,0 -13.5999,-4.39999 -14.6666,-9.33331 z"
       style="fill:#000000"
       id="path177180"
       sodipodi:nodetypes="ccssccssccssccssc" />
  </g>
  <path
     id="Ear_left"
     fill="#a1dadb"
     d="m 917.41752,197.20776 c -0.5568,0.81416 -0.9956,1.70735 -1.303,2.65152 l -6.67855,32.72487 c -0.76134,2.33984 -0.67951,4.88368 0.23054,7.1665 l 10.29461,21.38265 34.5961,-36.20208 -23.1697,-39.49811 c -0.8617,-1.46889 -2.86759,-1.63708 -3.9487,-0.3311 z"
     style="stroke-width:0.384941"
     sodipodi:nodetypes="cccccccsc" />
  <path
     id="Ear_right"
     fill="#a1dadb"
     d="m 1042.3651,197.20776 c 0.5568,0.81416 0.9957,1.70735 1.303,2.65152 l 6.6786,32.72487 c 0.7614,2.33984 0.6795,4.88368 -0.2305,7.1665 l -10.2946,21.38265 -34.5961,-36.20208 23.1697,-39.49811 c 0.8617,-1.46889 2.8676,-1.63709 3.9487,-0.3311 z"
     style="stroke-width:0.384941"
     sodipodi:nodetypes="cccccccsc" />
  <path
     id="Neck"
     fill="#025e57"
     d="m 979.8914,379.52647 c 12.0588,0 23.5596,-2.36638 34.1712,-6.58632 3.4456,-1.37023 5.4347,-5.09488 4.7102,-8.82437 l -6.0584,-31.1918 -15.6875,18.32176 c -2.7218,3.17817 -6.1989,5.54841 -10.0799,6.8697 -4.6608,1.58721 -9.6838,1.58721 -14.345,0 -3.8806,-1.32129 -7.3581,-3.69153 -10.0795,-6.8697 l -15.52248,-18.1289 -6.0008,30.99987 c -0.7216,3.72791 1.2672,7.44931 4.7108,8.8192 10.6145,4.2226 22.11868,6.59056 34.18138,6.59056 z"
     style="stroke-width:0.384941"
     sodipodi:nodetypes="ssccccscccss" />
  <path
     fill="#047f7c"
     d="m 999.5949,353.44619 -0.064,0.0717 c -3.1074,3.62694 -7.0984,6.34523 -11.5427,7.86153 -2.6418,0.9033 -5.4055,1.36144 -8.2142,1.36144 -2.8066,0 -5.5739,-0.45814 -8.2233,-1.36144 -4.4388,-1.51707 -16.3084,-7.85177 -11.5337,-7.86153 l -0.035,-0.0408 -14.0025,-15.09171 -4.9809,25.73131 c -0.7217,3.72791 1.2672,7.44932 4.7107,8.81919 10.6147,4.22261 22.11888,6.59057 34.18138,6.59057 12.0589,0 23.55972,-2.36639 34.17132,-6.58632 3.4456,-1.37023 5.4346,-5.09487 4.7103,-8.82438 l -5.0537,-26.01828 z"
     id="path164207"
     style="stroke-width:0.384941"
     sodipodi:nodetypes="cccscscccsssccc" />
  <path
     fill="#047f7c"
     d="m 933.37052,269.72144 23.4029,14.45844 c 3.1882,1.96988 5.13888,5.51755 5.13888,9.34619 0,3.40793 2.683,6.17102 5.9931,6.17102 h 11.986 11.986 c 3.31,0 5.9931,-2.76309 5.9931,-6.17102 0,-3.82864 1.9507,-7.37631 5.1388,-9.34619 l 23.4029,-14.45844 c 0.9313,-0.57552 1.9973,-0.87948 3.0833,-0.87948 h 10.2777 l 0.048,-7.70888 -22.1603,-23.18919 15.0795,-43.45895 c 0.4308,-1.2422 1.9404,-1.6486 2.9068,-0.78306 l 8.2774,7.4151 -0.2568,-1.25763 c -0.3072,-0.94426 -0.7462,-1.83766 -1.3029,-2.65161 l -10.0214,-12.1059 c -1.0813,-1.30622 -3.0868,-1.13785 -3.9487,0.33108 l -23.1695,39.49811 h -24.9488 -25.71788 l -23.1714,-39.49811 c -0.8618,-1.46893 -2.86739,-1.63729 -3.9487,-0.33108 l -10.0215,12.1059 c -0.5567,0.81395 -0.9955,1.70735 -1.3028,2.65161 l -0.2568,1.25763 8.2774,-7.4151 c 0.9664,-0.86554 2.476,-0.45913 2.9069,0.78306 l 15.04,43.50188 -22.1209,23.14626 v 7.70888 h 10.3229 c 1.0859,0 2.1518,0.30396 3.0832,0.87948 z"
     id="path164209"
     style="stroke-width:0.384941"
     sodipodi:nodetypes="ccsscssccsccccccccscccccsccccccccscc" />
  <path
     fill="#a1dadb"
     d="m 922.93032,304.75437 19.9375,23.53646 19.68278,22.98766 c 2.7024,3.15633 6.1715,5.51604 10.0514,6.83695 2.3666,0.80565 4.8287,1.19323 7.2894,1.18005 v -59.5984 h -11.986 c -3.3101,0 -5.9931,-2.76309 -5.9931,-6.17102 0,-3.82864 -1.95068,-7.37631 -5.13888,-9.34619 l -23.4029,-14.45844 c -0.9313,-0.57552 -4.1694,-0.87948 -3.0833,-0.87948 h -10.3229 l 0.013,27.80503 c 0,2.98119 1.0501,5.86104 2.9535,8.10738 z"
     id="path164211"
     style="stroke-width:0.384941"
     sodipodi:nodetypes="cccsccssccscccc" />
  <path
     fill="#a1dadb"
     d="m 1026.4122,269.72144 -23.4029,14.45844 c -3.1881,1.96988 -5.1388,5.51755 -5.1388,9.34619 0,3.40793 -9.3031,6.17102 -5.9931,6.17102 h -11.986 v 59.5984 c 2.3827,-0.0124 4.7643,-0.39963 7.0556,-1.18005 3.8802,-1.32091 6.45629,-4.75411 10.0518,-6.83695 l 19.6825,-22.98766 19.9645,-23.5681 c 1.8871,-2.22751 2.9347,-5.07799 2.9533,-8.03356 l 0.1741,-27.84721 h -10.2777 c -1.086,0 -2.152,0.30396 -3.0833,0.87948 z"
     id="path164213"
     style="stroke-width:0.384941"
     sodipodi:nodetypes="ccsscccsccccsc" />
  <path
     id="Mask"
     fill="#1cacab"
     d="m 1039.8216,261.13308 -18.5596,-19.42119 -25.7868,17.12288 c -1.455,0.96045 -2.4361,2.52129 -2.6911,4.28099 l -0.8621,5.95333 c -0.51842,3.58003 -10.535,5.83655 -7.0194,5.83655 h -5.0112 -5.0113 c -3.5156,0 -6.50098,-2.25652 -7.0194,-5.83655 l -0.8621,-5.95333 c -0.255,-1.7597 -1.236,-3.32054 -2.6911,-4.28099 l -25.78598,-17.12212 -18.5604,19.42043 0.01,21.11196 h 6.8059 c 2.5082,0 4.5415,2.09341 4.5415,4.67611 v 1.71112 c 0,1.7759 0.7437,3.46554 2.0408,4.63617 l 19.8994,17.95903 c 1.29711,1.17063 1.64831,3.33352 2.6911,4.77102 v 27.57038 l 6.60128,7.70962 c 2.70254,3.15629 6.1716,5.51604 10.0515,6.83695 4.6578,1.58608 9.6874,1.58608 14.3449,0 3.8803,-1.32091 7.3494,-3.68062 10.0518,-6.83695 l 6.8347,-7.98232 v -27.29768 c 0,-1.7759 1.394,-3.60039 2.6911,-4.77102 l 19.8994,-17.95903 c 1.297,-1.17063 2.0407,-2.86027 2.0407,-4.63617 v -1.71112 c 0,-2.5827 2.0334,-4.67611 4.5416,-4.67611 h 6.6833 z"
     style="stroke-width:0.384941"
     sodipodi:nodetypes="ccccsscsscccccsssssscsccccsscssscc" />
</svg>
