<?xml version="1.0" encoding="UTF-8" standalone="no"?>
<svg
   width="200"
   height="200"
   viewBox="0 0 200 200"
   fill="none"
   version="1.1"
   id="svg12"
   sodipodi:docname="matrix-icon.svg"
   inkscape:version="1.1.2 (0a00cf5339, 2022-02-04, custom)"
   xmlns:inkscape="http://www.inkscape.org/namespaces/inkscape"
   xmlns:sodipodi="http://sodipodi.sourceforge.net/DTD/sodipodi-0.dtd"
   xmlns="http://www.w3.org/2000/svg"
   xmlns:svg="http://www.w3.org/2000/svg">
  <defs
     id="defs16" />
  <sodipodi:namedview
     id="namedview14"
     pagecolor="#ffffff"
     bordercolor="#666666"
     borderopacity="1.0"
     inkscape:pageshadow="2"
     inkscape:pageopacity="0.0"
     inkscape:pagecheckerboard="0"
     showgrid="false"
     inkscape:zoom="0.540625"
     inkscape:cx="-45.317919"
     inkscape:cy="735.26011"
     inkscape:window-width="1920"
     inkscape:window-height="1080"
     inkscape:window-x="1920"
     inkscape:window-y="0"
     inkscape:window-maximized="0"
     inkscape:current-layer="svg12" />
  <path
     fill-rule="evenodd"
     clip-rule="evenodd"
     d="M100 200C155.228 200 200 155.228 200 100C200 44.7715 155.228 0 100 0C44.7715 0 0 44.7715 0 100C0 155.228 44.7715 200 100 200Z"
     fill="#0DBD8B"
     id="path2"
     style="fill:none;fill-opacity:1" />
  <path
     fill-rule="evenodd"
     clip-rule="evenodd"
     d="M81.7169 46.5946C81.7169 42.5581 84.9959 39.2859 89.0408 39.2859C116.456 39.2859 138.681 61.4642 138.681 88.8225C138.681 92.859 135.401 96.1312 131.357 96.1312C127.312 96.1312 124.033 92.859 124.033 88.8225C124.033 69.5372 108.366 53.9033 89.0408 53.9033C84.9959 53.9033 81.7169 50.6311 81.7169 46.5946Z"
     fill="white"
     id="path4" />
  <path
     fill-rule="evenodd"
     clip-rule="evenodd"
     d="M153.39 81.5137C157.435 81.5137 160.714 84.7859 160.714 88.8224C160.714 116.181 138.49 138.359 111.075 138.359C107.03 138.359 103.751 135.087 103.751 131.05C103.751 127.014 107.03 123.742 111.075 123.742C130.4 123.742 146.066 108.108 146.066 88.8224C146.066 84.7859 149.345 81.5137 153.39 81.5137Z"
     fill="white"
     id="path6" />
  <path
     fill-rule="evenodd"
     clip-rule="evenodd"
     d="M118.398 153.405C118.398 157.442 115.119 160.714 111.074 160.714C83.6592 160.714 61.4347 138.536 61.4347 111.177C61.4347 107.141 64.7138 103.869 68.7587 103.869C72.8035 103.869 76.0826 107.141 76.0826 111.177C76.0826 130.463 91.7489 146.097 111.074 146.097C115.119 146.097 118.398 149.369 118.398 153.405Z"
     fill="white"
     id="path8" />
  <path
     fill-rule="evenodd"
     clip-rule="evenodd"
     d="M46.6097 118.486C42.5648 118.486 39.2858 115.214 39.2858 111.178C39.2858 83.8193 61.5102 61.6409 88.9255 61.6409C92.9704 61.6409 96.2494 64.9132 96.2494 68.9497C96.2494 72.9862 92.9704 76.2584 88.9255 76.2584C69.6 76.2584 53.9337 91.8922 53.9337 111.178C53.9337 115.214 50.6546 118.486 46.6097 118.486Z"
     fill="white"
     id="path10" />
  <path
     style="fill:none;stroke-width:0.231214"
     d="m 94.33526,199.74912 c -0.445087,-0.0508 -2.16185,-0.2056 -3.815029,-0.34388 -11.311302,-0.94615 -24.16245,-4.5964 -34.605245,-9.82929 l -2.967009,-1.48677 v -36.59951 c 0,-20.21953 0.08936,-36.6978 0.199658,-36.81915 0.486209,-0.5349 0.776278,-2.06572 0.962767,-5.08092 0.340778,-5.50977 1.470386,-9.636714 3.953847,-14.445091 4.063228,-7.867057 11.149526,-13.977351 19.54549,-16.853469 3.092076,-1.05922 6.186522,-1.640233 9.903528,-1.859482 3.765815,-0.222129 4.769695,-0.548929 6.453253,-2.100779 2.019126,-1.861165 2.802516,-4.50292 2.12247,-7.157403 -0.460296,-1.796705 -1.531836,-3.347607 -2.994965,-4.334779 -1.508004,-1.01745 -2.386016,-1.217309 -5.354425,-1.21881 -6.736444,-0.0034 -14.3354,1.849563 -20.872499,5.089663 -4.616187,2.288002 -7.828983,4.515577 -12.284503,8.517387 l -1.63623,1.469612 0.05861,-32.430276 0.05861,-32.430275 2.427745,-1.225344 C 65.670983,5.4726308 77.148825,2.1053157 89.43368,0.65270925 c 4.770373,-0.56406655 16.36227,-0.56406655 21.13264,0 12.39972,1.46618795 23.68552,4.78621625 34.17356,10.05308775 l 2.65896,1.335273 0.0585,36.139288 c 0.0564,34.840299 0.0431,36.161383 -0.36926,36.75403 -0.75063,1.078683 -0.99095,2.157644 -1.20238,5.398361 -0.35201,5.395357 -1.44026,9.576204 -3.62974,13.944711 -4.83745,9.6518 -13.64173,16.41508 -24.25353,18.63109 -1.22798,0.25643 -3.71006,0.55338 -5.51573,0.65989 -3.76581,0.22213 -4.76969,0.54893 -6.45325,2.10078 -1.58324,1.45938 -2.32919,3.1653 -2.32284,5.3121 0.009,2.87847 1.39065,5.24947 3.8457,6.59718 1.09954,0.6036 1.4947,0.68464 3.73106,0.76517 6.81597,0.24543 14.96362,-1.64204 21.87428,-5.06736 4.75365,-2.35617 8.67573,-5.11314 12.67647,-8.91074 l 1.6763,-1.59119 v 32.5419 32.5419 l -3.20785,1.60699 c -10.38647,5.20314 -21.72978,8.52317 -33.68562,9.8593 -3.00778,0.33614 -14.449085,0.63447 -16.285716,0.42465 z m 19.83124,-39.61726 c 1.58182,-0.70051 3.34771,-2.6111 3.87184,-4.1891 0.86762,-2.61218 0.31693,-5.43945 -1.44016,-7.39375 -1.69541,-1.88571 -2.84167,-2.3368 -6.54038,-2.57385 -7.29861,-0.46778 -12.931923,-2.29495 -18.52761,-6.00948 -2.788003,-1.85073 -7.470458,-6.50807 -9.263922,-9.21423 -3.697288,-5.57886 -5.509399,-11.0132 -5.96267,-17.88144 -0.192879,-2.92261 -0.318019,-3.63472 -0.845165,-4.80936 -1.215491,-2.70847 -3.725706,-4.24516 -6.90352,-4.22614 -3.719057,0.0222 -6.802467,2.88949 -7.18978,6.68572 -0.07785,0.76301 -0.0225,2.79191 0.122985,4.50867 1.327614,15.66585 9.543637,29.40054 22.673732,37.90356 7.615005,4.93146 17.79452,7.96831 26.12717,7.79449 2.20454,-0.046 2.8672,-0.14769 3.87748,-0.59509 z m 20.58333,-64.775425 c 1.71769,-0.841852 3.03885,-2.357723 3.64474,-4.181906 0.33737,-1.015729 0.37894,-1.751516 0.26478,-4.686816 -0.61794,-15.888751 -9.01295,-30.48234 -22.65988,-39.391151 -3.89731,-2.544192 -9.37482,-4.982111 -13.87646,-6.176107 -4.462011,-1.183486 -9.957045,-1.879731 -13.281794,-1.68286 -3.043179,0.180197 -5.226744,1.557642 -6.464388,4.077887 -0.550657,1.121316 -0.6424,1.590319 -0.640465,3.274113 0.0026,2.275286 0.454645,3.51459 1.842083,5.050317 1.444955,1.599392 2.8856,2.141663 6.308592,2.374606 5.890051,0.400832 9.659977,1.307147 13.911642,3.344448 7.40885,3.550151 12.85832,8.86712 16.45821,16.058024 2.18702,4.368635 3.27324,8.647604 3.63734,14.328675 0.1714,2.674328 0.28719,3.293172 0.80844,4.320793 1.93081,3.80655 6.16452,5.19289 10.04716,3.289977 z"
     id="path92" />
  <path
     style="fill:none;stroke-width:0.231214"
     d="m 94.33526,199.74912 c -0.445087,-0.0508 -2.16185,-0.2056 -3.815029,-0.34388 -11.311302,-0.94615 -24.16245,-4.5964 -34.605245,-9.82929 l -2.967009,-1.48677 v -36.59951 c 0,-20.21953 0.08936,-36.6978 0.199658,-36.81915 0.486209,-0.5349 0.776278,-2.06572 0.962767,-5.08092 0.340778,-5.50977 1.470386,-9.636714 3.953847,-14.445091 4.063228,-7.867057 11.149526,-13.977351 19.54549,-16.853469 3.092076,-1.05922 6.186522,-1.640233 9.903528,-1.859482 3.765815,-0.222129 4.769695,-0.548929 6.453253,-2.100779 2.019126,-1.861165 2.802516,-4.50292 2.12247,-7.157403 -0.460296,-1.796705 -1.531836,-3.347607 -2.994965,-4.334779 -1.508004,-1.01745 -2.386016,-1.217309 -5.354425,-1.21881 -6.736444,-0.0034 -14.3354,1.849563 -20.872499,5.089663 -4.616187,2.288002 -7.828983,4.515577 -12.284503,8.517387 l -1.63623,1.469612 0.05861,-32.430276 0.05861,-32.430275 2.427745,-1.225344 C 65.670983,5.4726308 77.148825,2.1053157 89.43368,0.65270925 c 4.770373,-0.56406655 16.36227,-0.56406655 21.13264,0 12.39972,1.46618795 23.68552,4.78621625 34.17356,10.05308775 l 2.65896,1.335273 0.0585,36.139288 c 0.0564,34.840299 0.0431,36.161383 -0.36926,36.75403 -0.75063,1.078683 -0.99095,2.157644 -1.20238,5.398361 -0.35201,5.395357 -1.44026,9.576204 -3.62974,13.944711 -4.83745,9.6518 -13.64173,16.41508 -24.25353,18.63109 -1.22798,0.25643 -3.71006,0.55338 -5.51573,0.65989 -3.76581,0.22213 -4.76969,0.54893 -6.45325,2.10078 -1.58324,1.45938 -2.32919,3.1653 -2.32284,5.3121 0.009,2.87847 1.39065,5.24947 3.8457,6.59718 1.09954,0.6036 1.4947,0.68464 3.73106,0.76517 6.81597,0.24543 14.96362,-1.64204 21.87428,-5.06736 4.75365,-2.35617 8.67573,-5.11314 12.67647,-8.91074 l 1.6763,-1.59119 v 32.5419 32.5419 l -3.20785,1.60699 c -10.38647,5.20314 -21.72978,8.52317 -33.68562,9.8593 -3.00778,0.33614 -14.449085,0.63447 -16.285716,0.42465 z m 19.83124,-39.61726 c 1.58182,-0.70051 3.34771,-2.6111 3.87184,-4.1891 0.86762,-2.61218 0.31693,-5.43945 -1.44016,-7.39375 -1.69541,-1.88571 -2.84167,-2.3368 -6.54038,-2.57385 -7.29861,-0.46778 -12.931923,-2.29495 -18.52761,-6.00948 -2.788003,-1.85073 -7.470458,-6.50807 -9.263922,-9.21423 -3.697288,-5.57886 -5.509399,-11.0132 -5.96267,-17.88144 -0.192879,-2.92261 -0.318019,-3.63472 -0.845165,-4.80936 -1.215491,-2.70847 -3.725706,-4.24516 -6.90352,-4.22614 -3.719057,0.0222 -6.802467,2.88949 -7.18978,6.68572 -0.07785,0.76301 -0.0225,2.79191 0.122985,4.50867 1.327614,15.66585 9.543637,29.40054 22.673732,37.90356 7.615005,4.93146 17.79452,7.96831 26.12717,7.79449 2.20454,-0.046 2.8672,-0.14769 3.87748,-0.59509 z m 20.58333,-64.775425 c 1.71769,-0.841852 3.03885,-2.357723 3.64474,-4.181906 0.33737,-1.015729 0.37894,-1.751516 0.26478,-4.686816 -0.61794,-15.888751 -9.01295,-30.48234 -22.65988,-39.391151 -3.89731,-2.544192 -9.37482,-4.982111 -13.87646,-6.176107 -4.462011,-1.183486 -9.957045,-1.879731 -13.281794,-1.68286 -3.043179,0.180197 -5.226744,1.557642 -6.464388,4.077887 -0.550657,1.121316 -0.6424,1.590319 -0.640465,3.274113 0.0026,2.275286 0.454645,3.51459 1.842083,5.050317 1.444955,1.599392 2.8856,2.141663 6.308592,2.374606 5.890051,0.400832 9.659977,1.307147 13.911642,3.344448 7.40885,3.550151 12.85832,8.86712 16.45821,16.058024 2.18702,4.368635 3.27324,8.647604 3.63734,14.328675 0.1714,2.674328 0.28719,3.293172 0.80844,4.320793 1.93081,3.80655 6.16452,5.19289 10.04716,3.289977 z"
     id="path131" />
  <path
     style="fill:none;stroke-width:0.231214"
     d="M 95.606936,199.75288 C 59.926913,198.29838 27.395362,177.39291 11.141585,145.47363 8.4062499,140.10197 6.8994543,136.52336 5.1868009,131.33114 2.9590708,124.57738 1.5421175,118.08815 0.65270925,110.56632 c -0.56406654,-4.77037 -0.56406654,-16.362271 0,-21.132644 C 3.4214412,66.018203 13.163285,45.67504 29.363172,29.479769 40.41,18.436091 53.063773,10.526682 67.745665,5.4882855 79.422657,1.4810826 91.291339,-0.21557717 104.2707,0.26693413 135.73646,1.4366825 165.32277,18.0341 182.92927,44.393064 c 8.00483,11.984166 13.21472,25.085269 15.55386,39.112735 1.02626,6.154333 1.27793,9.402647 1.27793,16.494201 0,7.09155 -0.25167,10.33987 -1.27793,16.4942 -1.92099,11.51988 -5.81083,22.46782 -11.71987,32.98557 -1.66646,2.9662 -6.08105,9.48701 -8.37446,12.36994 -10.53322,13.24079 -24.0057,23.54354 -39.31366,30.06416 -10.58162,4.50738 -22.93977,7.36676 -33.472,7.74462 -1.87363,0.0672 -3.97886,0.15307 -4.67828,0.19078 -0.69943,0.0377 -3.09249,-0.006 -5.317924,-0.0964 z m 18.095154,-39.444 c 1.49067,-0.47094 3.42152,-2.26353 4.12565,-3.83024 0.81483,-1.81301 0.77481,-4.69501 -0.0875,-6.30523 -0.73345,-1.36954 -1.15811,-1.8792 -2.26475,-2.71806 -1.32547,-1.00475 -2.64255,-1.34066 -6.13876,-1.56564 -9.453199,-0.60833 -17.120244,-4.1589 -23.584491,-10.92187 -3.568654,-3.73357 -6.066509,-7.89114 -7.726816,-12.86095 -1.071321,-3.2068 -1.543956,-5.79084 -1.811281,-9.9028 -0.234403,-3.60555 -0.769727,-5.00596 -2.493653,-6.52342 -1.550246,-1.36458 -3.24927,-1.93471 -5.39675,-1.81097 -2.7659,0.15939 -4.916474,1.54573 -6.191972,3.99157 -1.498333,2.87315 -0.654145,11.75956 1.825496,19.2162 6.259792,18.82413 23.91819,32.37787 43.788437,33.60992 3.15419,0.19557 4.38731,0.11721 5.95643,-0.37851 z m 4.78918,-22.40777 c 10.26834,-1.5093 20.02994,-6.37656 27.4395,-13.68169 8.4648,-8.34549 13.5113,-18.97778 14.66648,-30.90028 0.52527,-5.4212 0.0635,-7.700097 -1.97242,-9.734812 -1.51278,-1.511863 -2.8935,-2.057473 -5.21443,-2.060557 -1.6774,-0.0023 -2.15886,0.09108 -3.28645,0.636937 -2.3917,1.157794 -4.11239,3.826608 -4.11239,6.378381 0,2.113866 -0.48094,5.911304 -1.05619,8.339524 -3.20074,13.510807 -14.5563,24.082267 -28.18962,26.243127 -1.14602,0.18165 -3.38757,0.42427 -4.98123,0.53916 -3.24059,0.23363 -4.29693,0.61028 -5.85074,2.08616 -2.08325,1.97876 -2.8015,5.23944 -1.76143,7.9965 0.8094,2.1456 2.84434,3.93096 5.19181,4.55506 0.97162,0.25831 6.22064,0.0297 9.12711,-0.39751 z m -68.523552,-20.1 c 2.360192,-1.15474 4.020721,-3.83482 4.020721,-6.48942 0,-3.1376 0.770148,-7.73032 1.877462,-11.19608 0.759745,-2.377924 3.068654,-6.864741 4.688779,-9.111534 2.715651,-3.766076 6.90276,-7.586615 10.825091,-9.877378 4.929318,-2.878876 9.990032,-4.320351 16.835713,-4.795419 3.242037,-0.224985 4.292299,-0.598067 5.850736,-2.078336 2.083246,-1.978758 2.801496,-5.239447 1.761431,-7.996501 -0.617928,-1.638035 -2.114992,-3.23948 -3.80453,-4.069799 -1.068229,-0.524976 -1.402025,-0.566696 -4.393063,-0.549073 -20.817695,0.122666 -40.112356,14.696079 -46.249096,34.932314 -1.478913,4.876796 -2.366081,11.013806 -2.144782,14.836596 0.202733,3.50211 2.316796,6.13773 5.619311,7.00562 1.279332,0.33621 3.789383,0.0362 5.112227,-0.61099 z M 133.99879,95.739882 c 1.79298,-0.681279 3.08937,-1.878035 3.96658,-3.661736 0.74485,-1.514558 0.76247,-1.62006 0.7425,-4.444821 -0.0514,-7.267993 -1.93376,-14.703968 -5.46257,-21.578883 -4.08729,-7.962948 -10.60385,-14.925325 -18.44883,-19.710976 -7.27123,-4.435644 -15.991941,-6.958504 -24.456597,-7.075172 -2.719297,-0.03748 -3.061424,0.0064 -4.231977,0.542254 -1.793179,0.820943 -2.862832,1.846798 -3.701091,3.549544 -0.615429,1.250116 -0.724081,1.730012 -0.724081,3.198121 0,2.991579 1.439052,5.329419 4.081153,6.630122 1.320241,0.649952 1.73837,0.729748 4.777908,0.91182 9.070731,0.543343 16.655195,3.83021 22.824985,9.891623 6.38732,6.275128 9.81547,13.807884 10.44208,22.944638 0.2305,3.360981 0.39831,4.314907 0.94,5.343494 0.8062,1.530818 2.62893,3.072613 4.22066,3.570111 1.45801,0.455706 3.66744,0.40732 5.02928,-0.110139 z"
     id="path244" />
</svg>
