<?xml version="1.0" encoding="UTF-8" standalone="no"?>
<!-- Created with Inkscape (http://www.inkscape.org/) -->

<svg
   width="150.73221mm"
   height="26.648182mm"
   viewBox="0 0 150.73221 26.648182"
   version="1.1"
   id="svg1"
   inkscape:version="1.3 (0e150ed, 2023-07-21)"
   sodipodi:docname="logo.svg"
   xmlns:inkscape="http://www.inkscape.org/namespaces/inkscape"
   xmlns:sodipodi="http://sodipodi.sourceforge.net/DTD/sodipodi-0.dtd"
   xmlns="http://www.w3.org/2000/svg"
   xmlns:svg="http://www.w3.org/2000/svg">
  <sodipodi:namedview
     id="namedview1"
     pagecolor="#505050"
     bordercolor="#eeeeee"
     borderopacity="1"
     inkscape:showpageshadow="0"
     inkscape:pageopacity="0"
     inkscape:pagecheckerboard="0"
     inkscape:deskcolor="#505050"
     inkscape:document-units="mm"
     inkscape:zoom="0.40064581"
     inkscape:cx="287.03657"
     inkscape:cy="408.09113"
     inkscape:window-width="1344"
     inkscape:window-height="766"
     inkscape:window-x="0"
     inkscape:window-y="0"
     inkscape:window-maximized="0"
     inkscape:current-layer="layer1" />
  <defs
     id="defs1">
    <rect
       x="136.23257"
       y="389.23596"
       width="366.9939"
       height="118.16091"
       id="rect1" />
  </defs>
  <g
     inkscape:label="Layer 1"
     inkscape:groupmode="layer"
     id="layer1"
     transform="translate(-27.573408,-22.739447)">
    <g
       id="text2"
       style="font-size:35.2778px;letter-spacing:-1.10067px;fill:#0ac18e;fill-opacity:0;stroke:#ffffff;stroke-width:0.265"
       aria-label="BCHouse">
      <path
         style="fill-opacity:1;stroke:#0ac18e"
         d="M 27.705908,48.879299 V 23.222716 h 10.272655 q 2.831244,0 4.722916,0.839351 1.891672,0.839351 2.843772,2.330139 0.9521,1.47826 0.9521,3.407515 0,1.503316 -0.601326,2.64333 -0.601327,1.127486 -1.653647,1.854089 -1.039794,0.714075 -2.38025,1.014738 v 0.250552 q 1.465733,0.06264 2.743551,0.826824 1.290346,0.764185 2.092114,2.142224 0.801768,1.365512 0.801768,3.257184 0,2.042003 -1.014738,3.645539 -1.00221,1.591009 -2.969048,2.518054 -1.966837,0.927044 -4.848192,0.927044 z m 5.424463,-4.43478 h 4.422253 q 2.267501,0 3.307294,-0.864407 1.039793,-0.876934 1.039793,-2.330139 0,-1.064848 -0.513633,-1.879144 -0.513632,-0.814296 -1.465732,-1.277818 -0.939572,-0.463522 -2.242446,-0.463522 h -4.547529 z m 0,-10.485625 h 4.021369 q 1.114959,0 1.979365,-0.388357 0.876934,-0.400884 1.378039,-1.127486 0.513633,-0.726603 0.513633,-1.741341 0,-1.390566 -0.989683,-2.242445 -0.977155,-0.851879 -2.781133,-0.851879 h -4.12159 z m 39.426184,-1.753868 h -5.487101 q -0.150332,-1.064849 -0.613854,-1.891672 -0.463522,-0.839351 -1.190125,-1.42815 -0.726602,-0.588798 -1.678702,-0.901989 -0.939572,-0.313191 -2.042003,-0.313191 -1.991893,0 -3.470153,0.989683 -1.47826,0.977155 -2.292556,2.856299 -0.814296,1.866617 -0.814296,4.535002 0,2.74355 0.814296,4.610167 0.826823,1.866617 2.305083,2.818716 1.478261,0.9521 3.420043,0.9521 1.089904,0 2.016948,-0.288135 0.939572,-0.288136 1.666175,-0.839351 0.726602,-0.563744 1.202652,-1.365512 0.488577,-0.801768 0.676492,-1.829034 l 5.487101,0.02506 q -0.21297,1.766395 -1.064848,3.407514 -0.839351,1.628592 -2.267501,2.918938 -1.415622,1.277818 -3.38246,2.029476 -1.95431,0.73913 -4.422252,0.73913 -3.432571,0 -6.138538,-1.553426 -2.693441,-1.553426 -4.259394,-4.497419 -1.553426,-2.943992 -1.553426,-7.12822 0,-4.196756 1.578481,-7.140748 1.578481,-2.943993 4.284449,-4.484891 2.705968,-1.553426 6.088428,-1.553426 2.229917,0 4.134117,0.626381 1.916727,0.626381 3.394987,1.829034 1.47826,1.190125 2.405305,2.918937 0.939572,1.728813 1.202652,3.958731 z m 2.795414,16.674273 V 23.222716 h 5.424463 V 33.808562 H 91.788218 V 23.222716 h 5.411935 V 48.879299 H 91.788218 V 38.280926 H 80.776432 v 10.598373 z"
         id="path25" />
      <path
         style="font-weight:bold;font-family:Inter;-inkscape-font-specification:'Inter Bold';fill:#ffffff;fill-opacity:1"
         d="m 109.16574,49.255128 q -2.91894,0 -5.04864,-1.240235 -2.11717,-1.252763 -3.26971,-3.482681 -1.152541,-2.242445 -1.152541,-5.198966 0,-2.981575 1.152541,-5.211493 1.15254,-2.242446 3.26971,-3.482681 2.1297,-1.252763 5.04864,-1.252763 2.91893,0 5.0361,1.252763 2.1297,1.240235 3.28224,3.482681 1.15254,2.229918 1.15254,5.211493 0,2.956521 -1.15254,5.198966 -1.15254,2.229918 -3.28224,3.482681 -2.11717,1.240235 -5.0361,1.240235 z m 0.0251,-4.134117 q 1.32793,0 2.21739,-0.751658 0.88946,-0.764185 1.34046,-2.079586 0.46352,-1.315401 0.46352,-2.994104 0,-1.678702 -0.46352,-2.994103 -0.451,-1.315401 -1.34046,-2.079586 -0.88946,-0.764185 -2.21739,-0.764185 -1.34045,0 -2.25497,0.764185 -0.90199,0.764185 -1.36551,2.079586 -0.451,1.315401 -0.451,2.994103 0,1.678703 0.451,2.994104 0.46352,1.315401 1.36551,2.079586 0.91452,0.751658 2.25497,0.751658 z M 133.35833,40.68623 V 29.636862 h 5.33677 v 19.242437 h -5.1238 v -3.495208 h -0.20044 q -0.65143,1.69123 -2.16728,2.718495 -1.50331,1.027266 -3.67059,1.027266 -1.92926,0 -3.39499,-0.876934 -1.46573,-0.876934 -2.29256,-2.492998 -0.81429,-1.616064 -0.82682,-3.871037 V 29.636862 h 5.33677 v 11.299921 q 0.0125,1.703757 0.91452,2.69344 0.90199,0.989683 2.41783,0.989683 0.96463,0 1.80398,-0.438467 0.83935,-0.450995 1.35298,-1.327929 0.52616,-0.876934 0.51363,-2.16728 z m 24.50578,-5.562267 -4.88577,0.300663 q -0.12528,-0.626381 -0.53869,-1.127486 -0.41341,-0.513633 -1.08991,-0.814296 -0.66396,-0.313191 -1.591,-0.313191 -1.24024,0 -2.09212,0.526161 -0.85188,0.513632 -0.85188,1.378039 0,0.689019 0.55122,1.165069 0.55121,0.47605 1.89167,0.764185 l 3.48268,0.701548 q 2.80619,0.576271 4.18423,1.854089 1.37804,1.277818 1.37804,3.357404 0,1.891672 -1.11496,3.319822 -1.10243,1.428149 -3.03169,2.229917 -1.91672,0.789241 -4.42225,0.789241 -3.82093,0 -6.08843,-1.591009 -2.25497,-1.603536 -2.64333,-4.359614 l 5.24908,-0.275608 q 0.23803,1.165069 1.15254,1.778923 0.91452,0.601326 2.34267,0.601326 1.40309,0 2.25497,-0.538688 0.86441,-0.551216 0.87694,-1.415622 -0.0125,-0.726602 -0.61386,-1.190125 -0.60132,-0.476049 -1.85409,-0.726602 l -3.33235,-0.663964 q -2.81871,-0.563744 -4.19675,-1.95431 -1.36551,-1.390567 -1.36551,-3.545319 0,-1.854089 1.00221,-3.194545 1.01473,-1.340457 2.84377,-2.067059 1.84156,-0.726603 4.3095,-0.726603 3.64554,0 5.73766,1.540899 2.10464,1.540898 2.45541,4.196755 z m 11.47703,14.131165 q -2.96905,0 -5.11128,-1.202652 -2.12969,-1.21518 -3.28223,-3.43257 -1.15255,-2.229918 -1.15255,-5.274132 0,-2.969048 1.15255,-5.211493 1.15254,-2.242446 3.24465,-3.495209 2.10464,-1.252763 4.93589,-1.252763 1.9042,0 3.54532,0.613854 1.65364,0.601326 2.88135,1.816506 1.24024,1.21518 1.92926,3.056742 0.68902,1.829033 0.68902,4.284449 v 1.465732 h -16.24834 v -3.307294 h 11.22476 q 0,-1.152542 -0.50111,-2.042003 -0.5011,-0.889462 -1.39057,-1.390567 -0.87693,-0.513633 -2.042,-0.513633 -1.21518,0 -2.15475,0.563744 -0.92705,0.551215 -1.45321,1.490787 -0.52616,0.927045 -0.53868,2.067059 v 3.144435 q 0,1.428149 0.52616,2.467942 0.53868,1.039794 1.51584,1.603537 0.97715,0.563743 2.31761,0.563743 0.88946,0 1.62859,-0.250552 0.73913,-0.250553 1.26529,-0.751658 0.52616,-0.501105 0.80177,-1.227708 l 4.93589,0.325719 q -0.37583,1.778923 -1.5409,3.106852 -1.15254,1.3154 -2.98158,2.054531 -1.8165,0.726602 -4.19675,0.726602 z"
         id="path26" />
    </g>
  </g>
</svg>
